<?xml version="1.0" standalone="no"?>
<!DOCTYPE svg PUBLIC "-//W3C//DTD SVG 20010904//EN"
 "http://www.w3.org/TR/2001/REC-SVG-20010904/DTD/svg10.dtd">
<svg version="1.0" xmlns="http://www.w3.org/2000/svg"
 width="1280.000000pt" height="641.000000pt" viewBox="0 0 1280.000000 641.000000"
 preserveAspectRatio="xMidYMid meet">
<metadata>
Created by potrace 1.15, written by Peter Selinger 2001-2017
</metadata>
<g transform="translate(0.000000,641.000000) scale(0.100000,-0.100000)"
fill="#000000" stroke="none">
<path d="M3285 5660 c-1385 -412 -2529 -753 -2542 -759 -26 -12 -32 -58 -9
-67 23 -9 125 -236 153 -341 22 -81 26 -120 26 -228 1 -115 -2 -139 -25 -205
-15 -41 -38 -95 -52 -120 -25 -45 -27 -46 -147 -85 -167 -55 -176 -78 -56
-143 40 -21 156 -83 259 -137 103 -55 186 -101 184 -102 -2 -2 -14 1 -28 7
-21 10 -36 6 -100 -25 -97 -47 -150 -99 -151 -149 -2 -87 110 -169 538 -391
72 -37 180 -94 240 -125 61 -32 227 -119 370 -193 143 -74 989 -514 1880 -977
1792 -933 1897 -986 2027 -1036 268 -102 504 -114 798 -39 116 29 169 46 1025
325 699 229 940 307 1390 453 143 47 350 114 460 150 110 36 376 123 590 193
462 150 572 191 655 245 79 51 100 93 74 150 -9 21 -38 58 -64 82 -41 37 -50
42 -75 35 -16 -4 -31 -6 -33 -4 -8 8 370 127 385 122 11 -5 14 -14 9 -39 -4
-24 -3 -28 5 -17 8 12 9 9 5 -11 -8 -39 20 -203 53 -303 16 -48 30 -83 33 -76
3 11 61 -226 84 -348 6 -27 64 -82 383 -360 572 -499 682 -594 687 -589 3 2
-51 107 -120 231 -103 190 -123 232 -117 254 4 15 17 32 29 38 12 6 19 14 15
17 -8 9 34 -5 305 -96 122 -42 222 -73 222 -69 0 9 -113 104 -557 470 -187
155 -350 293 -361 306 -38 48 -83 213 -153 556 -39 193 -79 341 -104 390 -11
22 -9 40 15 133 79 302 47 612 -89 864 -17 31 -31 67 -31 79 0 18 -17 30 -92
67 -1824 879 -5451 2617 -5460 2616 -7 0 -1147 -337 -2533 -749z"/>
</g>
</svg>
